<?xml version="1.0" standalone="no"?>
<!DOCTYPE svg PUBLIC "-//W3C//DTD SVG 1.1//EN" "http://www.w3.org/Graphics/SVG/1.1/DTD/svg11.dtd">
<svg id="Calque_1" xmlns="http://www.w3.org/2000/svg" xmlns:xlink="http://www.w3.org/1999/xlink" viewBox="0 0 500 218.95" width="500" height="218.9499969482422"><defs><style>.cls-1{fill:url(#Nouvelle_nuance_de_dégradé_1_2-4);}.cls-2{isolation:isolate;}.cls-3{fill:url(#Nouvelle_nuance_de_dégradé_1_2-3);}.cls-4{fill:url(#Nouvelle_nuance_de_dégradé_1_2-5);}.cls-5{filter:url(#drop-shadow-2);}.cls-6{fill:url(#Nouvelle_nuance_de_dégradé_1_2);}.cls-7{fill:url(#Nouvelle_nuance_de_dégradé_1_2-8);}.cls-8{fill:url(#Nouvelle_nuance_de_dégradé_1_2-6);}.cls-9{fill:url(#Nouvelle_nuance_de_dégradé_1_2-2);}.cls-10{fill:url(#Nouvelle_nuance_de_dégradé_1_2-7);}</style><filter id="drop-shadow-2" filterUnits="userSpaceOnUse"><feOffset dx="2" dy="2"/><feGaussianBlur result="blur" stdDeviation="3"/><feFlood flood-color="#000" flood-opacity=".65"/><feComposite in2="blur" operator="in"/><feComposite in="SourceGraphic"/></filter><linearGradient id="Nouvelle_nuance_de_dégradé_1_2" x1="130.88" y1="86.58" x2="76.65" y2="140.81" gradientUnits="userSpaceOnUse"><stop offset="0" stop-color="#fa8c0f"/><stop offset="1" stop-color="#f6aa1c"/></linearGradient><linearGradient id="Nouvelle_nuance_de_dégradé_1_2-2" x1="174.46" y1="82.93" x2="122.06" y2="135.33" xlink:href="#Nouvelle_nuance_de_dégradé_1_2"/><linearGradient id="Nouvelle_nuance_de_dégradé_1_2-3" x1="211.98" y1="75.64" x2="163.24" y2="124.37" xlink:href="#Nouvelle_nuance_de_dégradé_1_2"/><linearGradient id="Nouvelle_nuance_de_dégradé_1_2-4" x1="249.79" y1="72.87" x2="196.51" y2="126.15" xlink:href="#Nouvelle_nuance_de_dégradé_1_2"/><linearGradient id="Nouvelle_nuance_de_dégradé_1_2-5" x1="283.2" y1="86.69" x2="239.04" y2="130.85" xlink:href="#Nouvelle_nuance_de_dégradé_1_2"/><linearGradient id="Nouvelle_nuance_de_dégradé_1_2-6" x1="329.18" y1="80.24" x2="280.91" y2="128.5" xlink:href="#Nouvelle_nuance_de_dégradé_1_2"/><linearGradient id="Nouvelle_nuance_de_dégradé_1_2-7" x1="375.82" y1="75.38" x2="322.85" y2="128.35" xlink:href="#Nouvelle_nuance_de_dégradé_1_2"/><linearGradient id="Nouvelle_nuance_de_dégradé_1_2-8" x1="424.8" y1="79.8" x2="364.29" y2="140.31" xlink:href="#Nouvelle_nuance_de_dégradé_1_2"/></defs><g class="cls-5"><g class="cls-2"><path class="cls-6" d="M80.53,78.07l14.93-1.8,17.04,43.95,.22-.03-5.46-45.34,10.6-1.28,9.13,75.75-12.23,1.47-20.95-53.58-.22,.03,6.66,55.3-10.61,1.28-9.13-75.75Z"/></g><g class="cls-2"><path class="cls-9" d="M128.66,72.55l32.58-2.84,.95,10.86-20.63,1.8,1.75,20.09,16.4-1.43,.95,10.86-16.4,1.43,2.03,23.35,20.63-1.8,.95,10.86-32.58,2.84-6.62-76.01Z"/></g><g class="cls-2"><path class="cls-3" d="M179.58,79.43l-12.51,.77-.67-10.88,36.99-2.27,.67,10.88-12.51,.77,4,65.28-11.97,.73-4-65.28Z"/></g><g class="cls-2"><path class="cls-1" d="M210.87,66.65l31.7-1,.34,10.89-19.72,.62,.67,21.25,15.47-.49,.34,10.89-15.47,.49,1.04,33.23-11.98,.38-2.4-76.26Z"/></g><g class="cls-2"><path class="cls-4" d="M250.22,65.68h11.99s-.05,65.41-.05,65.41h19.73s0,10.92,0,10.92l-31.72-.02,.05-76.3Z"/></g><g class="cls-2"><path class="cls-8" d="M290.7,138.26c-3.04-3.42-4.49-8.18-4.34-14.28l.98-40.1c.15-6.1,1.83-10.79,5.03-14.05,3.2-3.26,7.75-4.83,13.63-4.68,5.88,.14,10.35,1.93,13.39,5.34,3.04,3.42,4.49,8.18,4.34,14.28l-.98,40.1c-.15,6.1-1.83,10.79-5.03,14.05-3.21,3.27-7.75,4.83-13.63,4.68-5.88-.14-10.35-1.92-13.39-5.34Zm20.05-12.92l1.02-41.62c.12-5.01-1.89-7.57-6.03-7.67-4.14-.1-6.27,2.35-6.4,7.37l-1.02,41.62c-.12,5.01,1.89,7.57,6.03,7.67,4.14,.1,6.27-2.36,6.4-7.37Z"/></g><path class="cls-10" d="M334.1,139.5c-2.85-3.48-4.1-8.3-3.74-14.47l3.39-58.11,11.97,.7-3.44,58.98c-.15,2.61,.26,4.53,1.25,5.75,.98,1.22,2.46,1.89,4.42,2,1.96,.11,3.5-.38,4.62-1.48,1.12-1.1,1.75-2.96,1.91-5.57l3.44-58.98,11.53,.67-3.39,58.11c-.36,6.17-2.16,10.81-5.4,13.93-3.24,3.12-7.76,4.51-13.56,4.18-5.8-.34-10.13-2.25-12.99-5.73Z"/><g class="cls-2"><path class="cls-7" d="M387.59,107.96l-8.34-38.65,12.54,1.61,4.87,25.46,.21,.03,11.35-23.38,11.24,1.44-17.83,35.3,8.77,40.47-12.54-1.61-5.27-27.49-.22-.03-12.25,25.24-11.24-1.44,18.7-36.94Z"/></g></g></svg>